<?xml version="1.0" encoding="UTF-8" standalone="no"?>
<svg
   xmlns:dc="http://purl.org/dc/elements/1.1/"
   xmlns:cc="http://creativecommons.org/ns#"
   xmlns:rdf="http://www.w3.org/1999/02/22-rdf-syntax-ns#"
   xmlns:svg="http://www.w3.org/2000/svg"
   xmlns="http://www.w3.org/2000/svg"
   xmlns:sodipodi="http://sodipodi.sourceforge.net/DTD/sodipodi-0.dtd"
   xmlns:inkscape="http://www.inkscape.org/namespaces/inkscape"
   width="400px"
   height="200px"
   viewBox="0 0 400 200"
   version="1.1"
   id="svg3945"
   sodipodi:docname="ai-ml-image-classification.svg"
   inkscape:version="0.92.3 (2405546, 2018-03-11)">
  <metadata
     id="metadata3951">
    <rdf:RDF>
      <cc:Work
         rdf:about="">
        <dc:format>image/svg+xml</dc:format>
        <dc:type
           rdf:resource="http://purl.org/dc/dcmitype/StillImage" />
      </cc:Work>
    </rdf:RDF>
  </metadata>
  <defs
     id="defs3949" />
  <sodipodi:namedview
     pagecolor="#ffffff"
     bordercolor="#666666"
     borderopacity="1"
     objecttolerance="10"
     gridtolerance="10"
     guidetolerance="10"
     inkscape:pageopacity="0"
     inkscape:pageshadow="2"
     inkscape:window-width="1040"
     inkscape:window-height="640"
     id="namedview3947"
     showgrid="false"
     inkscape:zoom="2.84"
     inkscape:cx="133.77724"
     inkscape:cy="93.068854"
     inkscape:window-x="50"
     inkscape:window-y="50"
     inkscape:window-maximized="1"
     inkscape:current-layer="svg3945" />
  <!-- Generator: Sketch 59.1 (86144) - https://sketch.com -->
  <title
     id="title3912">ai-ml-image-classification</title>
  <desc
     id="desc3914">Created with Sketch.</desc>
  <defs
     id="defs3933">
    <filter
       id="brightness">
      <feComponentTransfer
         id="feComponentTransfer3930">
        <feFuncR
           type="linear"
           slope="3.75"
           id="feFuncR3924" />
        <feFuncG
           type="linear"
           slope="3.75"
           id="feFuncG3926" />
        <feFuncB
           type="linear"
           slope="3.75"
           id="feFuncB3928" />
        <feFuncA
           type="identity"
           id="feFuncA18" />
      </feComponentTransfer>
    </filter>
  </defs>
  <g
     id="ai-ml-image-classification"
     stroke="none"
     stroke-width="1"
     fill="none"
     fill-rule="evenodd">
    <rect
       fill="#F0F8FF"
       x="0"
       y="0"
       width="400"
       height="200"
       id="rect3916" />
    <rect
       id="Rectangle"
       stroke="#C9D0D6"
       fill="#FFFFFF"
       x="30"
       y="28"
       width="200"
       height="144" />
    <rect
       id="rect3919"
       stroke="#C9D0D6"
       fill="#FFFFFF"
       x="260"
       y="28"
       width="110"
       height="24" />
    <text
       id="Dog"
       font-family="ArialMT, Arial"
       font-size="16"
       font-weight="normal"
       fill="#000000">
      <tspan
         x="300.324219"
         y="45"
         id="tspan3921">Dog</tspan>
    </text>
    <rect
       id="rect3924"
       stroke="#C9D0D6"
       fill="#FFFFFF"
       x="260"
       y="68"
       width="110"
       height="24" />
    <rect
       id="rect3926"
       stroke="#C9D0D6"
       fill="#FFFFFF"
       x="260"
       y="148"
       width="110"
       height="24" />
    <rect
       id="rect3928"
       stroke="#C9D0D6"
       fill="#FFFFFF"
       x="260"
       y="108"
       width="110"
       height="24" />
    <text
       id="Fox"
       font-family="ArialMT, Arial"
       font-size="16"
       font-weight="normal"
       fill="#C9D0D6">
      <tspan
         x="301.664062"
         y="125"
         id="tspan3930">Fox</tspan>
    </text>
    <text
       id="Wolf"
       font-family="ArialMT, Arial"
       font-size="16"
       font-weight="normal"
       fill="#C9D0D6">
      <tspan
         x="299.144531"
         y="165"
         id="tspan3933">Wolf</tspan>
    </text>
    <text
       id="Cat"
       font-family="ArialMT, Arial"
       font-size="16"
       font-weight="normal"
       fill="#C9D0D6">
      <tspan
         x="302.550781"
         y="85"
         id="tspan3936">Cat</tspan>
    </text>
    <line
       x1="277"
       y1="80"
       x2="353"
       y2="80"
       id="Line-5"
       stroke-opacity="0.5"
       stroke="#FF0000"
       stroke-width="2"
       stroke-linecap="square" />
    <line
       x1="277"
       y1="160"
       x2="353"
       y2="160"
       id="line3940"
       stroke-opacity="0.5"
       stroke="#FF0000"
       stroke-width="2"
       stroke-linecap="square" />
    <line
       x1="277"
       y1="120"
       x2="353"
       y2="120"
       id="line3942"
       stroke-opacity="0.5"
       stroke="#FF0000"
       stroke-width="2"
       stroke-linecap="square" />
  </g>
  <g
     id="g3982"
     transform="matrix(0.63116015,0,0,0.63116015,44.035769,35.335648)"
     style="filter:url(#brightness)">
    <path
       id="path3953"
       d="m 88,205 -3,-1 -1,-1 -3,-4 c -2,-2 -2,-3 -1,-4 v -1 l 5,-3 c 5,-1 5,-1 8,-6 3,-6 3,-7 -2,-5 -4,2 -5,2 -5,0 l -1,-1 a 91,91 0 0 1 -3,-7 v -2 l -5,-4 -2,-1 h -2 l -3,-1 -3,-1 h -2 -5 c -2,1 -4,-1 -4,-2 0,-2 -2,-3 -3,-1 0,2 -1,1 -1,-2 l -3,-2 h -2 v -7 l -1,-4 -2,-2 -1,-3 -1,-3 -1,-1 -1,-2 -1,-1 h -2 -1 l -2,-6 h -3 c -1,1 -3,1 -5,-1 l -1,-2 c 1,-1 0,-2 -1,-2 l -2,-1 c 0,-1 -2,-2 -4,-1 l -1,-1 -1,-5 -1,-2 -2,-1 -1,-1 v -3 l -1,-3 C 9,104 8,100 9,97 L 8,95 C 7,94 8,91 10,89 V 86 L 9,82 V 79 L 8,78 V 77 76 L 7,75 V 71 C 6,71 6,67 8,65 L 9,64 V 62 61 C 8,60 8,58 10,57 v -1 l 1,-2 v -8 l 1,-1 v -1 -1 l 2,-2 c 2,-1 2,-2 -1,-2 -2,-1 -1,-2 4,-6 2,-1 2,-2 2,-4 v -1 -1 l 1,-1 c 2,0 3,0 2,-2 l 1,-2 1,-4 c 1,-4 1,-5 3,-5 l 2,-2 1,-1 h 12 c 2,0 4,3 4,5 l 1,2 v 1 l 1,1 v 1 h 2 l 3,1 1,1 2,1 c 2,1 2,1 5,-5 l 2,-5 v -3 l 1,-3 1,-2 c 0,-2 1,-2 2,0 l 1,1 2,1 h 2 c 5,-4 8,-4 10,1 l 3,3 1,1 v 1 c 2,0 3,2 3,3 l 1,1 1,2 c -2,4 -1,6 2,5 l 4,2 2,1 9,3 2,1 1,1 c 3,3 9,3 18,2 h 7 l 8,-2 c 5,-2 12,-2 16,-1 8,2 15,2 19,-1 2,-2 7,-2 10,-1 l 4,-3 c 0,-3 3,-4 4,-2 1,2 1,2 3,1 4,-6 5,-6 8,-6 l 9,1 1,1 1,1 1,1 2,1 3,2 7,6 1,2 v 1 l 4,5 2,2 2,1 3,3 1,1 c 2,1 3,2 4,5 l 4,9 2,10 1,6 a 137,137 0 0 1 4,28 93,93 0 0 1 1,23 l -1,4 h -1 v 3 l -1,3 c 0,2 0,2 -2,1 h -1 -1 c -1,-1 -2,0 -2,1 l -1,4 v 1 l -1,2 v 1 c 0,2 -1,2 -2,0 0,-2 -1,-2 -2,0 -1,5 -1,5 1,7 l 2,2 7,2 2,1 -1,1 a 236,236 0 0 1 -16,-2 c -3,0 -3,0 -2,2 l -1,3 c -2,1 -2,1 -2,9 1,8 0,9 -1,9 l -2,-3 -1,-3 -4,-2 -2,-1 h -1 l -1,-1 h -1 l -1,-1 c -2,-1 -3,-1 -3,1 l -2,3 h -1 l -1,2 -2,2 h -2 l -2,-1 -3,-4 -2,-4 v 1 c 0,1 -1,1 -2,-1 l -2,-1 -1,-1 c 0,-1 -1,-1 -2,1 l -2,2 c 0,-1 0,0 0,0 l -2,-1 -1,-1 -3,-6 c -1,0 -2,1 -2,3 l -1,2 -1,-1 h -1 c -1,-1 -1,0 -1,1 l 1,1 1,1 -4,-2 -2,-2 -1,-1 c -1,-2 -1,-2 -3,0 l -4,5 -2,4 -5,5 -3,3 -3,4 -5,5 -3,1 c -2,2 -8,2 -9,0 l -1,-1 -1,-3 v -2 c 0,-3 3,-7 6,-7 2,0 3,-1 5,-3 l 4,-5 c 3,-3 4,-4 2,-4 l -2,-1 -4,-1 c -3,0 -6,-2 -6,-4 l -3,1 -1,1 -1,4 -1,4 c -1,1 -1,1 -4,-1 -3,-3 -3,-3 -4,-2 -1,1 -3,2 -3,4 l -1,1 v 1 c 1,2 0,3 -3,1 l -3,-1 -1,1 v 2 c 0,2 -1,3 -2,2 l -1,1 -6,7 -2,1 -1,2 v 2 c -2,4 -6,9 -12,11 -4,3 -4,3 -7,2 z"
       inkscape:connector-curvature="0"
       style="fill:#a29a8d" />
    <path
       id="path3955"
       d="m 88,204 -3,-1 -1,-1 -2,-3 c -2,-2 -3,-3 -2,-4 l 1,-2 3,-1 c 6,-1 6,-1 10,-9 2,-5 1,-5 -5,-2 -2,1 -3,0 -3,-1 v -1 c -4,-7 -4,-8 -3,-9 l -5,-4 -2,-1 -2,-1 h -4 l -7,-2 h -3 c -2,1 -4,0 -4,-2 0,-1 0,-2 -2,-1 l -1,-1 -3,-2 c -1,0 -2,-1 -1,-2 v -1 l 1,-3 c 1,-2 0,-2 -1,-1 v -2 -2 -3 c 0,-3 0,-3 -2,-1 -1,1 -3,0 -2,-1 l -1,-2 -1,-2 c -3,-5 -3,-6 -5,-6 -3,0 -3,0 -3,-3 0,-4 -1,-5 -2,-3 h -3 c -1,1 -4,1 -4,-1 l -1,-2 -3,-1 -2,-1 -2,-1 -2,-5 -1,-1 -1,-2 -2,-4 -1,-2 C 10,103 8,99 9,98 V 95 C 8,94 8,91 10,88 L 11,86 10,82 9,78 V 77 75 L 8,74 v -1 -2 -1 l -1,-2 1,-2 1,-2 1,-1 v -6 l 1,-1 1,-2 v -5 c -1,-1 -1,-1 1,-3 l 1,-4 v -1 c 3,-1 2,-3 0,-3 l 2,-4 c 3,-1 4,-2 4,-4 v -1 -1 l 1,-1 c 2,-1 2,-1 2,-3 v -2 l 2,-3 2,-6 2,-1 c 1,-2 4,-2 5,-1 h 8 c 2,0 4,2 4,5 v 2 l 1,1 v 1 l 1,1 h 1 l 3,1 2,1 2,1 c 2,1 3,0 5,-5 l 2,-6 1,-3 1,-3 V 6 h 1 l 2,1 h 4 l 6,-2 c 2,0 2,1 4,4 l 1,2 1,1 1,1 1,1 2,2 1,2 h 1 l -1,2 v 2 c 0,1 1,3 3,3 l 4,1 3,2 c 3,0 5,1 8,3 l 2,1 3,1 c 2,2 9,3 16,2 l 7,-1 6,-1 a 37,37 0 0 1 18,-2 l 5,1 c 8,2 11,1 16,-2 l 9,-1 c 2,1 3,0 4,-1 l 1,-3 c 0,-1 1,-2 2,-1 1,3 2,3 6,-1 4,-4 4,-4 9,-4 4,1 7,2 5,3 v 1 c 1,-1 5,1 5,2 l 3,2 c 2,0 7,5 7,5 v 1 l 1,2 1,2 1,2 2,1 1,3 1,1 7,5 1,2 3,5 3,5 1,7 3,11 2,11 a 710,710 0 0 1 0,40 v 2 l -1,2 v 1 c 1,1 0,2 -3,2 l -3,2 v 1 l -1,3 c -1,3 -1,2 -2,2 -1,-1 -2,1 -3,4 v 4 l -1,2 2,2 4,1 3,1 c 4,1 5,1 4,2 h -1 l -3,-1 -3,-1 h -3 l -3,-1 c -4,-1 -6,0 -5,3 l -2,2 -1,6 v 12 l -3,-2 c -1,-3 -3,-6 -4,-5 l -1,-1 h -1 l -2,-1 -2,-1 c -1,0 -2,0 -2,-2 v -1 l -1,1 v 1 l -1,2 c 0,1 -2,3 -3,2 l -1,1 -1,1 -1,2 c -1,2 -1,2 -2,0 h -1 l -4,-4 c 0,-2 -2,-5 -3,-4 h -1 l -1,-2 -1,-1 h -2 l -1,1 -2,2 h -2 l -4,-7 c -2,0 -2,1 -2,3 l -1,2 v -1 h -1 l -1,-1 c -1,0 -2,0 -1,1 0,2 -1,2 -2,0 l -1,-1 -2,-1 c 0,-2 -1,-2 -3,0 l -4,5 -2,3 -5,5 -4,5 -3,4 -7,4 c -2,2 -7,2 -8,1 l -2,-1 v -4 c 0,-5 2,-8 6,-8 l 5,-3 3,-4 c 4,-4 5,-6 2,-6 l -2,-1 -4,-1 c -3,0 -5,-1 -6,-3 h -3 l -1,1 c -1,0 -2,1 -2,5 1,5 0,6 -4,2 -3,-2 -3,-2 -5,-1 l -2,1 -1,2 c 0,2 0,2 -1,1 l -1,1 c 2,3 2,3 -1,1 h -4 l -1,3 c 1,2 0,2 -1,2 l -2,1 c 0,1 -3,6 -5,6 l -2,2 -1,1 -1,2 c -1,5 -5,9 -11,12 -5,2 -4,2 -7,1 z m 7,-12 v -1 h -1 v 1 z m -4,-14 v -1 l -2,2 c 0,1 1,1 2,-1 z m 77,-16 c 1,-2 0,-5 -1,-6 -1,-1 -2,4 -1,6 z m -109,-58 2,-2 2,-3 v -2 c 0,-1 -1,-1 -2,1 l -1,1 -3,4 c 1,2 1,2 2,1 z m 7,-10 1,-1 v -1 l 1,-1 v -1 l 1,-2 v -1 l 1,-1 1,-2 1,-1 1,-2 1,-2 1,-1 4,-5 2,-3 c 1,-1 2,-2 1,-3 l 1,-2 c 2,-2 -4,-5 -7,-4 -3,1 -4,3 -3,5 1,2 0,5 -2,6 l -1,1 -2,1 c -1,-1 -5,0 -6,1 l -4,2 c -2,0 -3,0 -2,2 v 2 l -1,2 a 513,513 0 0 1 2,5 c 2,-1 5,-3 7,-7 3,-6 6,-8 9,-7 2,0 1,2 -1,2 -2,0 -5,3 -5,5 v 3 l -4,8 c 0,2 1,2 2,2 z M 59,79 v -1 c 1,-1 3,0 2,1 z m 172,0 v -1 h -2 c -1,0 -1,2 1,2 z m -3,-4 1,-3 c -1,0 -1,0 0,0 h -1 l -1,1 v 3 z M 46,71 h 5 v -1 -2 l -3,-3 -2,-1 v -1 l -1,-1 c 0,-1 -1,-3 -2,-2 l 1,2 1,5 c 0,4 0,5 1,4 z m 183,-4 -1,-1 v 2 z m -1,-2 c 1,-1 0,-3 -2,-3 v -1 c 0,-2 0,-2 -2,-2 -2,0 -2,0 0,2 l 2,2 c 0,2 2,3 2,2 z m 7,-1 c 1,-1 0,-5 -2,-5 l -1,-2 1,1 3,2 v 1 h 3 v -2 -2 l -1,-2 -1,-1 -1,-1 -1,-1 -1,-2 -3,-3 -5,-2 -1,-1 h -1 l -1,-1 c -2,0 -2,0 -1,-1 2,-1 2,-2 1,-3 -2,-1 -4,0 -3,2 v 3 c -3,0 -5,1 -2,2 l 2,1 h 1 l 1,1 v 1 l 1,1 1,2 1,2 h 1 l 1,2 h -1 c -2,0 -2,0 0,1 h 2 l 1,1 v 1 l 1,1 1,2 1,1 c -1,1 0,1 1,1 z m 7,-3 h -1 v 1 z M 68,59 v -1 l 1,-1 1,-1 v -2 l -1,-2 -4,-2 -1,-1 v -1 c 1,-1 1,-1 -2,-1 l -2,1 h -2 l -2,3 h 4 l 1,1 1,2 1,2 v 2 l -1,1 z M 41,56 h 2 c 1,1 2,0 1,-1 v -2 -5 c -1,-2 -4,-2 -5,0 l -2,1 c -2,1 -2,3 0,5 l 1,1 c 0,1 2,2 3,1 z m 180,-1 -1,-1 c -1,0 -2,1 0,1 z m 10,-10 -2,-2 v 2 z m 4,-2 -1,-1 v 1 z m -46,-10 -2,-2 c -2,0 -2,1 0,2 z"
       inkscape:connector-curvature="0"
       style="fill:#9c886e" />
    <path
       id="path3957"
       d="m 89,204 -4,-1 -1,-1 -3,-3 c -1,-2 -2,-3 -1,-4 l 1,-1 5,-2 c 4,-1 4,-2 7,-6 4,-8 4,-9 -3,-6 -3,2 -3,2 -4,1 l -3,-8 -1,-3 -1,-2 -1,-1 -2,-1 -2,-1 -3,-1 -7,-2 h -6 c -2,1 -3,0 -3,-1 0,-2 -1,-3 -3,-3 h -1 l -3,-2 -1,-1 1,-2 v -3 -2 c -1,1 -2,1 -1,-1 1,-1 3,-5 2,-6 h -1 v -3 c 0,-3 -2,-4 -3,0 l -1,2 v -2 c 0,-3 -1,-3 -2,-3 -1,1 -2,-1 -3,-4 -1,-2 -3,-3 -4,-2 -1,1 -2,0 -2,-4 0,-2 -1,-4 -2,-3 h -1 -2 -1 -1 c -1,1 -2,0 -1,-2 0,-2 -1,-2 -2,-2 -1,2 -2,1 -2,0 -1,-2 0,-2 1,-3 h 4 c 1,1 1,1 3,-1 l 1,-1 v 2 h 1 c 0,-2 1,-2 1,0 -1,2 0,3 1,1 l 1,-1 c 1,-1 2,-1 2,-3 l 2,-2 h 2 l 3,1 v 1 c 0,3 1,3 2,1 l 2,-2 c 1,-1 1,-1 1,1 a 104,104 0 0 0 1,7 v 2 5 l -1,2 v 1 c 0,1 1,1 2,-1 l 1,-4 c 0,-1 1,-2 2,-1 l 2,4 c 0,2 0,2 1,0 0,-3 1,-3 1,-1 0,3 1,3 1,1 l 1,-1 v 3 a 1088,1088 0 0 1 3,1 h 1 v 2 2 c 1,0 2,0 1,-1 l 1,-2 1,-2 c 1,-2 1,-1 1,1 l 1,4 1,3 c 1,3 2,2 3,-1 v -2 l 1,-1 1,-2 c 2,0 2,1 1,3 v 1 c 1,1 1,0 2,-2 v -2 l -1,-8 v -6 -1 l -2,-2 -1,-2 -1,-2 c -1,-2 -3,-1 -3,1 v 2 c -1,1 -1,1 -1,-2 l -1,-1 -4,-2 1,-1 2,-1 v 2 c 1,2 3,-2 2,-5 0,-2 -1,-2 -1,-1 h -1 l -1,-1 1,-1 v -2 l 1,-5 1,-1 v -2 l 1,-2 1,-2 1,-1 2,-1 1,-2 1,-3 1,-1 1,-2 2,-2 2,-2 v -1 l 1,-1 1,-1 v -1 l 1,-1 v -6 -1 l 1,-2 A 898,898 0 0 0 75,40 v -1 l -1,-1 -3,-3 v -1 l -2,-1 v -1 l -1,-2 -2,-3 -2,-5 -3,2 -2,2 -2,2 c -2,4 -3,4 -3,1 -1,-2 -3,-2 -3,-1 0,2 -1,2 -4,2 h -2 -1 c -2,-2 -2,-2 -2,0 1,2 0,3 -2,2 l -1,1 c 1,1 -4,2 -5,0 l -2,-1 h -2 c -2,-1 -3,-2 -1,-5 v -3 l 1,-2 v -4 c 0,-5 2,-8 4,-6 l 3,1 h 3 l 1,1 1,1 h 1 c 1,0 2,1 2,3 v 2 l -1,3 c -1,-1 -1,0 -1,1 0,2 0,2 2,2 l 2,-1 3,-2 4,1 2,1 c 2,0 3,-1 5,-6 l 2,-5 1,-4 c 1,-5 3,-5 3,0 l 1,4 h -1 v 1 l 1,1 c 1,1 2,-1 1,-3 0,-2 0,-3 2,-4 l 1,-1 2,-1 2,-1 c 3,-1 4,1 5,5 l 1,3 1,2 h 1 c 1,-1 3,1 3,2 l 1,1 v 4 c 1,1 1,1 -1,3 -2,2 -1,3 2,2 h 1 v 1 c -1,2 -1,2 1,1 l 5,1 h 2 l 3,1 h 1 l 1,1 2,1 h 4 l 2,1 6,1 h 5 c 8,-1 14,-2 12,0 v 1 l 2,2 h 2 -1 1 l 1,-1 h 2 c 1,1 6,0 6,-1 h 2 c 4,-1 4,-2 2,-2 l -1,-1 h 1 l -3,-1 h -2 c 1,-1 9,-2 13,-1 9,2 16,2 19,0 h 1 v 1 l 3,-1 h 1 c 0,1 1,2 3,2 h 4 c 1,-2 -1,-4 -4,-4 h -1 7 c 1,-1 3,0 3,2 l 1,3 2,2 1,1 2,3 1,2 v 1 c -1,1 0,5 1,6 v 2 c -1,0 -3,3 -2,6 v 1 2 l 1,2 v 3 c 2,3 2,3 0,4 l -1,3 a 66,66 0 0 0 2,17 l 1,2 v 3 c 1,0 0,0 0,0 -2,1 -2,4 -1,5 -1,2 0,3 2,2 v -3 -1 c 0,-2 0,-2 2,-1 l 1,1 -1,1 1,-1 1,2 c 1,2 3,4 4,3 v -3 l 1,3 v 1 l 2,-1 h 1 v -1 c -1,-4 1,-4 2,0 0,1 2,3 3,2 l 1,-1 h 1 l 1,-3 1,3 2,1 v -1 l -1,-1 1,-2 v 1 l 1,2 c 1,2 1,2 1,0 l 1,-2 -1,-1 c 0,-2 0,-5 1,-3 l 1,1 v 1 l 1,2 c 1,2 1,2 1,0 l 1,-1 v -2 h 1 v -1 l 2,-2 1,-1 c -1,-1 0,-4 1,-5 l 1,-1 v -3 l -1,-4 c -1,-3 1,-7 2,-4 l 1,2 v 1 c 0,1 2,2 3,1 h 2 l 2,1 1,1 -1,-5 v -3 l 1,-1 -1,-2 h 3 l 2,5 v 2 l 1,4 1,4 1,7 1,7 v 3 23 l -1,3 -1,3 -1,1 -1,2 v -1 h -2 v 1 l -1,1 -3,5 -1,2 -2,2 -1,2 -1,3 v 4 c 0,2 -1,2 10,4 3,1 4,1 3,2 h -1 l -3,-1 -5,-1 -8,-1 c -2,0 -2,0 -2,2 1,2 0,2 -1,3 l -1,11 -1,7 -2,-2 c 0,-3 -3,-6 -4,-6 h -1 -2 l -3,-2 c -1,0 -2,0 -2,-2 v -1 l -1,1 v 1 l -1,1 c 0,2 -2,3 -3,3 l -1,1 -1,2 -1,2 -2,-1 -1,-1 c -2,0 -4,-2 -4,-3 0,-2 -2,-5 -3,-4 h -1 l -1,-2 h -1 c 0,-2 -2,-2 -3,0 l -2,2 h -1 l -1,-2 c -2,-5 -7,-7 -6,-2 0,1 0,2 -1,1 h -1 l -1,-1 c -1,-1 -2,0 -1,1 0,2 0,2 -1,0 l -3,-1 -1,-2 h -3 l -4,6 -3,3 -4,5 -3,4 -3,4 c -2,2 -4,4 -6,4 l -2,2 h -8 l -2,-1 v -2 -3 c 0,-4 2,-6 5,-7 3,0 4,-1 6,-3 l 3,-4 c 4,-4 5,-6 2,-6 l -2,-1 -4,-1 c -3,0 -5,-1 -6,-3 0,-1 -1,-1 -4,1 l -2,2 v 4 c 1,4 -1,4 -4,1 l -4,-2 -4,4 -1,1 c -2,0 -2,0 0,2 h -1 l -4,-1 -2,4 c 1,2 0,2 -2,2 h -1 l -2,5 -1,1 -2,1 -2,1 -1,2 -1,2 c -1,4 -5,9 -9,11 l -3,2 h -2 l -1,1 z m 8,-4 c 2,-3 2,-4 0,-4 -3,0 -4,5 -1,5 z m -5,-4 -2,-1 v 2 z m 0,-2 4,1 c 5,0 6,-1 6,-4 l 2,-2 v -2 l 1,-3 1,-5 v -4 l 1,-2 v -2 l -1,-2 h -1 l -3,2 -2,1 -1,2 1,1 -1,2 v 1 l -4,7 -2,4 -3,4 -2,2 2,-1 z m 0,-16 c 2,-1 2,-2 0,-3 l -2,-1 h -1 l -1,1 v 3 c -1,2 1,2 4,0 z m 71,-7 v -1 l 3,-1 c 1,1 2,0 2,-2 l 1,-1 c 1,-2 2,-5 1,-6 l -1,-2 -3,-3 c -1,1 -2,4 -1,6 l -1,3 c -1,1 0,2 1,2 h 1 l -3,1 c -1,-1 -2,0 -2,2 0,3 1,4 2,2 z m -60,-6 c 1,0 1,0 0,0 z m 1,-5 v -1 c 0,-1 -1,-2 -2,-1 v 2 z M 65,136 v -1 l -1,2 c 0,1 1,1 1,-1 z m -20,-19 1,-2 h -1 z m 201,-34 -1,-2 v 3 z M 143,41 v -1 l -2,-1 v 1 l 1,1 z m -60,-18 1,-2 -2,2 v -2 -3 c -1,1 -3,5 -2,6 v 2 z m -46,1 -1,-1 v 2 c 1,1 1,1 1,-1 z m -1,-2 -1,-4 -1,3 z m 7,-1 -1,-1 1,2 z m 33,109 1,-1 v -1 h 1 z m -57,-12 -1,-6 c 1,0 1,-1 0,0 l -1,-2 2,1 h 1 v 2 l 1,1 v 1 c 0,2 -2,3 -2,3 z m 30,-9 c -1,-2 0,-2 1,-2 v 2 z m -35,-1 -1,-1 v -2 l -1,-2 -1,-1 -1,-2 v -3 l -1,-2 1,-5 c 2,-3 2,-4 1,-5 l -1,-3 c 0,-3 0,-5 -2,-9 l 1,-2 c 1,-1 1,-2 -1,-2 -1,0 -1,-2 1,-3 l 1,-2 v -2 l 1,-1 v -3 a 4903,4903 0 0 1 2,-9 c -1,-1 0,-3 1,-3 2,0 2,-3 1,-3 v -2 c 2,0 2,-3 0,-3 v -1 l 1,-1 1,-1 h 1 l 1,2 1,1 a 1254,1254 0 0 0 -2,7 l 1,4 v 3 l -1,1 h -1 c -1,1 -2,3 -1,4 l -1,2 v 3 l 1,1 2,-1 4,-3 2,-1 c 3,-2 7,-2 8,-1 h 2 c 3,-1 5,0 2,2 -2,1 -2,2 1,2 h 3 c 0,-2 4,4 4,6 0,4 -2,8 -4,8 h -2 l 3,3 c 1,-2 2,1 1,2 l -1,7 c 1,1 1,0 2,-1 0,-2 4,-6 6,-8 2,-1 6,4 6,9 1,2 1,2 3,1 2,-1 5,-4 6,-7 3,-4 5,-6 7,-6 1,0 1,0 0,0 -1,1 -8,11 -8,13 v 1 l -1,3 c 1,2 -2,6 -5,8 l -7,2 -2,-2 -4,-4 -2,-2 -2,-1 -1,-4 -1,-4 -2,-4 -2,-2 -1,-3 -1,-2 h 3 l -1,-3 -1,-2 -1,-4 c -2,0 -3,1 -3,2 l -3,2 -4,3 -1,2 c -2,1 -2,3 -3,6 l -2,8 -2,4 v 2 c -2,3 -2,4 0,5 v 2 l 1,1 1,1 v 1 l -1,4 z m 51,-8 v -4 c 1,-1 2,2 1,4 z M 47,77 48,75 c 1,0 1,2 -1,2 z M 59,73 C 55,69 53,63 56,63 l 2,-1 c 2,-2 6,-3 9,-2 l 3,-1 1,-1 1,-1 3,-1 5,-1 3,1 1,1 v 3 l -3,1 -2,-1 c -2,-1 -4,0 -6,1 l -2,2 c -1,0 -1,0 0,0 v 5 c 2,1 -3,5 -7,5 l -3,1 z m -9,-10 -1,-3 -1,-1 1,-2 1,-1 h 1 c 1,-1 2,2 2,5 -1,3 -2,3 -3,2 z m 9,-3 -1,-2 c 1,0 2,1 1,2 z m -4,-2 v -2 l 1,1 z m 4,0 2,-2 v 2 z M 19,34 20,32 v -2 c -1,-1 2,-3 3,-2 l 1,1 1,1 -1,1 -2,1 v 1 l -1,1 z m 201,-2 h -2 c -2,0 -1,-1 2,-2 2,0 3,1 3,2 z m 7,0 -2,-1 c 0,-2 0,-2 2,-1 l 1,2 z m -28,-3 2,-4 v 2 l -1,2 z M 24,26 23,23 25,19 c 1,-5 1,-6 2,-5 1,1 0,6 -1,7 v 2 c 1,4 0,4 -2,3 z"
       inkscape:connector-curvature="0"
       style="fill:#887a67" />
    <path
       id="path3959"
       d="m 89,204 -3,-1 -2,-1 -2,-3 c -2,-2 -3,-4 -1,-4 v -1 l 2,-2 c 2,0 2,0 1,1 v 1 l 4,1 4,-1 2,1 h 3 l -1,1 -3,3 -1,1 -1,3 h 3 c -2,1 -4,2 -5,1 z m 0,-3 h -1 l -1,-1 h -1 l 1,1 1,1 z m 3,-5 -2,-1 v 2 z m 6,4 1,-1 2,-2 1,-1 1,-2 1,-2 c 0,-2 2,-5 3,-5 v -1 l 1,-2 2,-2 1,-2 v -1 c -1,-1 0,-6 1,-7 l -1,-3 -1,-2 -3,-7 -2,-5 c -1,0 -2,-5 -1,-6 l 1,-2 1,-2 -1,-2 v -1 -4 -2 l -1,-3 c 1,0 2,-1 1,-2 v -2 -6 l 1,-6 1,-1 2,-2 1,-1 1,-2 -1,-3 c -1,-1 -2,0 -3,1 v 1 l -3,1 h -3 c 0,-1 0,-1 0,0 h -1 c -1,1 -3,0 -3,-2 0,-2 -3,-1 -3,0 l -2,2 -1,-1 -2,-1 v 1 l -1,1 -1,1 -2,1 h -1 -2 c -1,-4 -1,-4 -3,-3 l -1,-2 -2,-4 -1,-1 -1,-1 -1,-2 c -1,-2 -2,-3 -1,-5 l 1,-4 1,-3 2,-1 c 3,-4 3,-3 2,-8 l 2,-2 1,-2 2,-3 1,-2 2,-1 c 2,-1 2,-5 1,-7 v -1 c 1,-1 2,-4 1,-5 v -1 l -2,-1 -1,-2 v -1 l -6,-3 -1,-1 v -2 l -2,-2 c -2,-1 -2,-2 -1,-3 v -1 l -1,-1 -3,-3 v -1 l -2,-1 v -1 l -1,-2 -2,-3 -2,-5 -3,2 -2,2 -2,2 c -2,4 -3,4 -3,1 -1,-2 -3,-2 -3,-1 0,2 -1,2 -4,2 h -2 -1 c -2,-2 -2,-2 -2,0 1,2 0,3 -2,2 l -1,1 c 1,1 -4,2 -5,0 l -2,-1 h -2 c -2,-1 -3,-2 -1,-5 v -3 l 1,-2 v -4 c 0,-5 2,-8 4,-6 l 3,1 h 3 l 1,1 1,1 h 1 c 1,0 2,1 2,3 0,3 0,5 -1,4 l -1,2 c 0,2 0,2 2,2 l 2,-1 2,-1 h 3 c 3,2 8,1 8,-2 l 4,-9 v -2 c 1,-5 3,-5 3,0 l 1,3 h -1 v 1 l 1,1 c 1,1 2,-1 1,-3 0,-2 2,-5 4,-5 h 1 l 4,-2 c 1,0 3,3 3,6 l 1,4 v 2 l -4,10 3,1 h 3 l 1,1 1,1 h 13 l 2,1 v 1 h 2 l 1,1 6,1 h 3 l 4,1 h 17 v 1 l 2,2 h 2 -1 1 l 1,-1 h 2 c 1,1 6,0 6,-1 h 2 c 4,-1 4,-2 2,-2 l -1,-1 h 1 l -3,-1 h -2 c 1,-1 9,-2 13,-1 7,2 14,2 18,1 h 6 l 6,2 c 2,0 2,0 2,-3 l 1,-1 2,1 2,2 1,3 2,4 2,1 c 2,2 2,1 1,3 l -1,3 v 3 8 l -1,2 v 1 l 1,2 v 4 l -1,5 v 5 c -1,0 -1,0 0,0 l 1,6 -1,2 c 1,1 0,1 -1,1 -1,0 -1,0 0,0 l -1,2 1,1 -1,2 v 10 l 1,1 1,1 -1,1 v 1 14 l 1,1 1,-2 v -2 h 2 l 1,2 1,2 1,1 c 1,1 1,0 1,-2 0,-2 1,-3 2,-1 v 3 l 1,1 v 1 h -1 l -2,1 2,1 1,-1 v 4 1 c 1,-1 2,0 1,1 v 1 l 1,2 1,1 v 2 h 2 c 1,-1 2,1 2,2 v 1 h 1 l 2,-3 v -1 l -1,-1 1,-3 v -1 -2 -1 l 1,-2 c 1,-1 2,-1 2,2 l 2,2 v 2 c 0,2 1,3 2,3 l 1,-2 c 2,-2 3,-2 4,0 l 1,1 v -1 l 2,-5 v -1 c -1,-1 1,-2 2,-1 h 1 v -3 h 2 l 2,4 v 1 h 1 l -1,-3 v -2 l -1,-2 v -2 h 1 v -4 c 0,-4 1,-6 2,-3 l 1,-1 c -1,-3 0,-4 1,-4 l 2,1 h -1 l -1,2 h 2 l 1,2 c 2,2 3,0 2,-2 v -2 l 2,1 h 1 v 1 c 1,2 2,4 1,5 v 2 l -1,3 -1,2 -1,2 -1,2 -1,3 -1,5 c 1,1 1,2 -1,1 -1,0 -2,-1 -1,-2 h -1 c -2,1 -5,-1 -4,-2 v -1 l -1,-1 -3,-2 2,3 v 16 6 l 2,5 -3,1 c -1,-1 -1,1 -1,2 v 3 c -2,1 -2,2 -2,10 l -1,8 -2,-4 -4,-4 h -1 -1 l -1,-1 -3,-1 -1,-1 -1,-2 -1,1 -1,1 v 2 c 0,1 -2,2 -3,1 l -1,1 -1,3 -1,2 -1,-1 -2,-1 -2,-1 -1,-2 c 0,-2 -2,-5 -3,-4 l -2,-1 -1,-1 -1,-1 h -3 l -2,2 -1,1 h -1 c 0,-2 -2,-6 -4,-7 -1,-1 -3,1 -3,3 h -2 c -1,-1 -2,0 -2,1 h -1 l -1,-1 -2,-2 h -3 l -4,6 -2,3 -5,5 -3,4 -4,4 -5,4 -2,2 h -8 l -2,-2 v -2 -3 -1 l 1,-2 4,-2 3,-1 2,-1 1,1 2,2 3,1 c 3,0 2,1 5,-4 l 2,-2 2,-3 3,-2 c 3,-4 4,-13 2,-16 l -2,-2 c -1,-1 -7,5 -6,8 l -1,2 -2,3 -2,4 v -2 -2 l -3,-1 -4,-1 c -3,0 -4,0 -6,-3 h -3 l -2,1 -1,6 c 0,4 0,4 -5,1 l -2,-2 -5,4 -1,1 c -2,-1 -2,0 -1,1 2,2 1,2 -1,1 -3,-2 -5,0 -5,3 l -1,2 -2,1 c 0,1 -4,6 -6,6 l -1,2 -1,2 -1,1 -4,7 -4,3 z m 49,-12 h -1 v 2 z m 6,0 c 1,-1 0,-2 -1,-2 v 3 z m 5,-23 1,-5 -2,2 -2,1 v 1 z m -5,-3 v -2 c -1,-1 -2,0 -1,1 v 1 c -2,1 -1,1 0,1 z m -34,-5 2,-1 h 2 l 1,-1 1,-2 v -1 -1 l -4,-2 c -2,0 -2,1 -1,1 v 1 h -5 l 1,3 2,3 z m 33,0 1,-3 c -1,-1 -2,-1 -3,1 0,2 1,3 2,2 z m -20,-4 v -2 -1 h -1 l -1,1 v 2 l 1,1 c 1,1 2,0 1,-1 z m 107,1 -2,-4 v 4 z m -34,-4 v -4 l -1,3 v 4 l 1,-1 z m -35,2 c 2,-5 2,-5 4,-5 l 3,-1 2,-1 v -1 c 0,-2 3,-2 3,-1 0,2 4,0 4,-2 v -1 l 1,-1 c 1,-2 1,-2 -2,-2 l -1,-1 v -1 l -1,-1 -2,-1 h -1 c 0,-1 0,-2 -2,-1 l -1,-2 v -2 l -1,1 -1,2 v 2 l -1,2 h -1 l -3,1 h -2 l -2,4 1,3 v 1 l 1,7 z m 9,-11 v -3 h 2 v 2 c 1,1 1,1 -1,1 z m 31,7 v -2 l 1,-1 -1,-3 v -2 3 l -1,4 v 2 l 1,2 z m -13,2 2,-1 3,-2 -1,-1 -1,-1 -1,-4 h -2 l -2,-3 v -1 c -1,0 -2,1 -2,3 v 2 l 1,3 2,3 1,2 c -1,1 0,1 0,0 z m -66,-3 h -1 v 1 z m 62,0 -3,-4 c -1,1 1,5 3,4 z m -58,-3 -1,1 1,1 z m 73,1 v -1 l -1,1 z m -2,-2 c 0,-4 0,-5 -2,-7 l -2,-2 1,6 1,2 c 0,2 2,3 2,1 z m 4,-6 h -1 l 1,2 1,-1 z m -9,1 v -1 l -1,2 z m -66,-7 -2,-8 -1,1 v 1 l 1,2 1,2 v 1 l 1,2 z m 60,-4 -1,-1 c -2,0 -2,0 -1,1 z m -16,-1 h 1 c 1,0 2,0 1,-2 l -1,-1 v -1 l -1,-1 v -1 c -2,0 -3,0 -2,-1 l -1,-2 h -3 l -1,1 v 5 l 1,1 2,1 2,1 z m -4,-6 -1,-2 2,1 c 1,2 0,3 -1,1 z m 25,6 v -1 c -1,-1 -2,0 -1,1 z m 5,-3 h -1 l 1,1 z M 99,50 c 1,-1 1,-2 -2,-3 h -7 -2 -1 v 1 h 2 l 2,1 h 1 l 2,1 c 1,2 4,2 5,0 z m -7,-8 c 0,-1 0,-2 -2,-2 -2,0 -2,0 -1,1 1,2 3,2 3,1 z m 51,-1 v -1 l -2,-1 v 1 l 1,1 z M 97,35 c 2,-1 2,-2 0,-2 h -4 c -3,-1 -4,0 -3,1 v 2 z M 37,24 36,23 v 2 c 1,1 1,1 1,-1 z m -1,-2 -1,-4 -1,3 z m 7,-1 -1,-1 1,2 z m 47,170 v -1 l 2,-3 c 5,-8 5,-9 0,-8 l 1,-1 1,-3 -1,-2 h -2 c -4,-2 -8,-2 -5,0 1,1 1,2 -1,1 v 1 l -1,-1 -1,-3 -2,-3 -1,-1 -3,-1 -2,-2 h -2 l -3,-1 h -2 l -2,-1 h -6 c -2,1 -3,0 -3,-2 0,-1 -1,-2 -3,-2 h -1 l -1,-2 c -2,-2 -2,-3 -1,-6 v -12 c -1,-2 0,-9 3,-11 0,-1 1,-1 1,4 l 1,3 v 2 l 1,2 v 1 l 1,2 2,2 v 2 h 1 l -1,5 v 1 l 1,2 c -1,3 1,2 4,-1 0,-2 1,-3 2,-3 l 1,-1 1,-1 h 2 l 1,-1 2,-1 h 1 l 1,1 h 2 l 3,-1 3,-2 2,-1 v 1 l 1,1 1,-1 h 1 l 2,1 3,1 c 2,0 2,0 3,3 1,4 2,6 1,8 l -1,5 v 4 l -1,7 c 2,3 1,7 -1,11 l -2,4 z m -7,-24 v -1 h -2 c -1,1 2,2 2,1 z m 4,14 -1,-1 v -1 c -1,-2 0,-2 1,0 l 1,1 v 1 z m 63,-4 1,-1 1,-1 c 1,-1 1,-1 0,0 z m 101,-18 c -1,0 -1,0 0,0 z M 46,135 c 0,-2 0,-3 -2,-3 l -3,-3 -1,-2 h -3 l -1,-4 v -3 c -1,-1 1,-2 1,0 h 2 v 3 l 1,2 c 1,-1 4,0 4,1 v 1 l 1,-1 c 1,-2 2,-3 3,-2 v 7 l -1,4 z m 182,-4 v -1 l 1,1 z m 6,-7 -1,-2 c -1,-2 0,-2 1,-1 1,2 2,3 1,4 -1,1 -2,0 -1,-1 z m -210,-7 1,-2 v 1 z M 14,105 v -2 c 1,-1 2,0 1,1 z m 36,-6 -4,-2 -3,-3 -2,-2 -1,-3 -2,-3 v -2 l -1,-2 c 0,-1 -2,-4 -5,-6 l -1,-2 h 4 l -1,-3 -1,-1 c 0,-3 -1,-5 -3,-5 -2,0 -2,1 -2,2 1,1 0,2 -2,2 l -4,3 -1,2 c -2,1 -2,3 -3,6 l -2,8 -1,2 -3,6 c -1,2 -1,2 -1,0 L 10,93 C 9,92 9,91 11,88 l 1,-3 -1,-5 V 77 L 10,74 9,72 v -2 -5 l 1,-1 1,-2 1,-3 2,-4 c 1,-2 1,-4 -1,-6 l 1,-3 c 3,-2 4,-3 3,-4 v -1 h 2 l 1,1 -1,1 v 9 l -1,1 -2,1 v 3 l -1,2 v 3 l 1,1 2,-1 4,-3 2,-1 c 3,-2 7,-2 8,-1 h 3 c 3,-1 4,0 1,2 -2,1 -2,2 1,2 6,0 8,4 6,10 l -3,4 h -2 l 3,3 c 1,-2 2,1 1,2 l -1,7 c 1,1 1,0 2,-2 l 3,-4 c 4,-5 5,-5 8,3 l 1,4 v 2 c 3,-1 7,-4 9,-7 l 4,-6 v 1 l -1,1 v 1 l -6,12 c 0,3 -3,6 -6,7 z m 150,-2 v -2 c 0,-1 1,-1 1,1 z m 0,-7 c -1,-1 0,-3 1,-3 v 4 c -1,1 -1,1 -1,-1 z M 47,77 48,75 c 1,0 1,2 -1,2 z m 11,-5 c -3,-4 -4,-7 -1,-8 l 1,-1 c 1,-2 7,-3 10,-3 2,1 2,0 3,-1 l 2,-1 h 8 l 1,1 h -3 c -2,-1 -5,0 -7,2 -2,2 -3,3 -1,3 v 4 c 1,2 -4,4 -8,4 l -2,1 c -1,1 -1,0 -3,-1 z M 50,62 49,60 v -4 l 2,2 1,1 v 3 z M 17,39 18,37 c 2,-1 3,1 1,2 z m 3,-6 2,-1 c 2,1 2,1 -1,1 z m 3,-3 -1,-1 h -1 l 1,-1 1,1 h 1 l 1,1 z m 2,-5 c -2,-1 -2,-1 -1,-3 l 1,-3 v -1 l 1,-1 v -1 h 1 l -1,5 v 1 c 1,2 0,5 -1,3 z m 58,0 v -1 l 2,-2 c 1,-3 1,-3 2,-2 v 4 l -1,1 -2,1 z"
       inkscape:connector-curvature="0"
       style="fill:#8b7350" />
    <path
       id="path3961"
       d="m 89,204 -3,-1 -2,-1 -2,-3 c -2,-2 -3,-4 -1,-4 v -1 l 2,-2 c 2,0 2,0 1,1 v 1 l 1,1 -1,1 c -1,1 1,5 3,5 l 2,1 h 2 c 0,2 0,2 2,1 h 1 c -2,1 -4,2 -5,1 z m 10,-5 3,-3 1,-2 1,-2 c 0,-2 2,-5 3,-5 v -1 l 1,-2 2,-2 1,-2 v -1 c -1,-1 0,-6 1,-7 l -1,-3 -2,-5 -1,-3 v -2 l -1,-1 v -1 l -2,-2 v -2 l 1,-2 v -1 l 3,-2 1,-2 v -2 c -1,-1 -1,-1 1,-1 v -1 l 1,-2 c 1,-1 1,-1 2,2 h 1 v 1 h 1 v -2 l -1,-2 c -2,0 -2,0 -1,-1 v -5 l -2,-1 v -2 -2 l 1,-2 h -1 v -10 l 1,-2 h 2 l 1,1 v -5 c -1,-1 -2,-1 -2,1 0,3 -1,2 -2,-2 l -1,-2 c 0,-2 -2,-3 -3,-3 l -1,1 c 0,2 -1,1 -3,-1 l -3,-2 c -2,0 -3,-1 -3,-2 l -3,-3 v 1 c 0,0 -2,2 -3,1 l -1,1 -1,1 c 0,1 -2,0 -2,-2 v -2 l -1,-2 -1,-1 v 2 l -1,2 h -1 -5 c 0,-1 0,-1 0,0 l -1,-1 v -1 l -1,-1 3,-3 c 1,0 3,-6 2,-7 l 1,-2 v -2 l 1,-4 v -1 l 1,-2 1,-1 h 2 l 1,-1 2,-1 1,-2 v -4 l -1,-2 -1,-2 1,-1 v -3 c 0,-3 1,-3 7,-3 6,0 8,0 6,-2 -2,-1 -1,-2 0,-2 h 1 c 1,-1 -1,-2 -2,-2 l -1,-1 -2,-1 c -2,0 -7,-4 -7,-5 v -1 c -2,-1 -1,-2 1,-1 h 2 l 2,1 1,1 h 4 l 1,1 c 0,1 1,2 2,1 l 5,-1 2,1 2,-1 c 1,1 2,0 2,-1 h 2 c 2,2 5,2 8,2 l 6,2 4,2 2,1 2,1 2,4 1,1 1,1 4,4 c 1,2 1,4 -1,4 v 1 l 1,-1 1,1 h 1 c 0,-2 0,-2 3,-1 l 1,-5 c 0,-2 -6,-7 -13,-11 l -3,-2 h -1 l -2,-1 -2,-1 h -1 l 1,-1 3,1 c 4,0 8,2 10,5 6,5 11,8 11,6 v -2 -3 l 1,-3 -1,-2 v -2 c -1,-1 -1,-1 1,-2 l 4,-1 h 4 l 10,1 h 4 v -1 l -1,-1 h 3 l 2,1 4,1 c 0,0 1,0 0,0 l 3,-4 2,2 1,2 v 1 l 1,1 c 2,2 2,4 1,4 v 2 c 1,4 1,12 -1,18 l -1,7 a 65,65 0 0 1 -2,18 l -1,3 c 1,1 -1,4 -2,4 v 2 l -1,1 v 1 l -1,1 h -2 c -1,-1 -2,0 -1,1 0,2 -1,2 -3,1 l -1,-2 v -1 l -1,-1 h -2 l -1,-1 -2,-1 -1,-1 h -2 -2 c -2,0 -4,1 -4,3 l -1,1 -1,1 c -1,2 -1,2 -2,1 h -3 -1 l -1,1 h 1 c 1,0 2,0 1,1 v 1 h 1 l -1,1 v -1 h -1 l -2,-3 h -1 v 1 h -3 l -2,3 -1,1 v 1 l 1,1 v 1 l -1,-1 h -1 l -2,2 v 1 h -3 l -1,-1 c 1,-1 0,-1 -1,-1 l -2,1 -1,2 h -1 c 1,-1 -1,-2 -1,-2 h -1 -1 l -1,1 v 1 h -1 v 2 c 0,2 0,2 -2,0 h -1 -3 c -2,0 -2,0 -1,3 2,4 2,4 1,5 l -1,1 -1,1 -1,2 1,1 c 2,0 2,2 0,2 v 3 l 1,2 2,2 c 2,0 3,2 3,3 l 1,1 1,2 1,1 1,1 2,1 1,-2 2,2 1,1 v -1 -2 l -1,-3 -1,-2 v -2 l 1,-1 1,-1 v -3 l 1,-1 1,-2 1,1 c 0,1 0,1 0,0 l 1,-1 1,-1 c 0,-1 0,-2 1,-1 h 2 l 1,1 v -3 h 1 l 2,1 c 0,1 1,2 2,1 h 1 c 1,1 2,1 2,-1 1,-2 3,-3 4,0 h 2 l 1,-3 h 1 l 2,4 1,2 h -2 v 8 4 l 1,3 c 0,2 0,3 2,5 l 1,1 c 2,-5 2,-5 4,-5 h 2 c 0,2 2,1 2,0 l 2,-2 v 1 h 1 v -1 l 1,-1 c 1,0 2,0 3,-2 l 2,-1 c -1,1 0,2 2,2 l -1,-3 v -2 -4 h -2 c 0,-1 -1,-2 -2,-1 v -1 l 1,-1 1,-2 c 0,-2 1,-1 3,2 l 1,3 1,1 2,1 v -1 -2 l 1,-2 c 1,-3 3,-2 5,1 h 2 v -2 -1 l 2,-4 h 2 c 2,3 3,3 3,2 l 2,-2 v 5 c 1,-1 2,0 1,1 v 1 l 1,2 1,1 v 2 h 2 c 1,-1 2,1 2,2 v 1 h 1 l 2,-3 v -1 l -1,-1 1,-3 v -1 -2 -1 l 1,-2 c 1,-1 2,-1 2,2 l 2,2 v 2 c 0,2 1,3 2,3 l 1,-2 c 2,-2 3,-2 4,0 l 1,1 v -1 l 2,-5 v -1 c -1,-1 1,-2 2,-1 h 1 v -3 h 2 l 2,4 v 1 h 1 l -1,-3 v -2 l -1,-2 v -2 h 1 v -4 c 0,-4 1,-6 2,-3 l 1,-1 c -1,-3 0,-4 1,-4 l 2,1 h -1 l -1,2 h 2 l 1,2 c 2,2 3,0 2,-2 v -2 l 2,1 h 1 v 1 c 1,2 2,4 1,5 v 2 l -1,3 -1,2 -1,2 -1,2 -1,3 -1,5 c 1,1 1,2 -1,1 -1,0 -2,-1 -1,-2 h -1 c -2,1 -5,-1 -4,-2 v -1 l -1,-1 -3,-2 2,3 v 16 6 l 2,5 -3,1 c -1,-1 -1,1 -1,2 v 3 c -2,1 -2,2 -2,10 l -1,8 -2,-4 -4,-4 h -1 -1 l -1,-1 -3,-1 -1,-1 -1,-2 -1,1 -1,1 v 2 c 0,1 -2,2 -3,1 l -1,1 -1,3 -1,2 -1,-1 -2,-1 -2,-1 -1,-2 c 0,-2 -2,-5 -3,-4 l -2,-1 -1,-1 -1,-1 h -3 l -2,2 -1,1 h -1 c 0,-2 -2,-6 -4,-7 -1,-1 -3,1 -3,3 h -2 c -1,-1 -2,0 -2,1 h -1 l -1,-1 -2,-2 h -3 l -4,6 -2,3 -5,5 -3,4 -4,4 -5,4 -2,2 h -8 l -2,-2 v -2 -3 -1 l 1,-2 4,-2 3,-1 2,-1 1,1 1,2 3,2 c 2,0 3,0 6,-5 l 2,-2 2,-3 3,-2 c 2,-3 4,-7 3,-9 l -1,-7 -2,-2 c -1,-1 -7,5 -6,8 l -1,2 -2,3 -2,4 v -2 -2 l -3,-1 -4,-1 c -3,0 -4,0 -6,-3 h -3 l -2,1 -1,6 c 0,4 0,4 -5,1 l -2,-2 -5,4 -1,1 c -2,-1 -2,0 -1,1 2,2 1,2 -1,1 -3,-2 -5,0 -5,3 l -1,2 -2,1 c 0,1 -4,6 -6,6 l -1,2 -1,2 -1,1 -4,7 -4,3 z m 48,-10 v -2 l -2,2 z m 6,-1 c 1,-1 0,-2 -1,-2 v 3 z m 5,-23 1,-5 -2,2 -2,1 v 1 z m -5,-3 v -2 c -1,-1 -2,0 -1,1 v 1 c -2,1 -1,1 0,1 z m -34,-5 2,-1 h 2 l 1,-1 1,-2 v -1 c 0,-1 0,-2 -2,-2 l -2,-1 c -1,-2 -2,-1 -2,1 v 1 l -4,-2 h -2 l 2,4 1,1 1,1 v 2 z m 33,0 1,-3 c -1,-1 -2,-1 -3,1 0,2 1,3 2,2 z m -20,-4 v -2 -1 h -1 l -1,1 v 2 l 1,1 c 1,1 2,0 1,-1 z m 107,1 -2,-4 v 4 z m -34,-4 v -4 l -1,3 v 4 l 1,-1 z m 5,-2 v -2 l 1,-1 -1,-3 v -2 3 l -1,4 v 2 l 1,2 z m -13,2 2,-1 3,-2 -1,-1 -1,-1 -1,-4 h -2 l -2,-3 h -3 v 2 l 1,2 1,3 2,3 1,2 c -1,1 0,1 0,0 z m -66,-3 h -1 v 1 z m 62,0 -3,-4 c -1,1 1,5 3,4 z m 15,-2 v -1 l -1,1 z m -2,-2 c 0,-4 0,-5 -2,-7 l -2,-2 1,6 1,2 c 0,2 2,3 2,1 z m -86,-1 -1,-2 v 2 z m 90,-5 h -1 l 1,2 1,-1 z m -9,1 v -1 l -1,2 z m -78,-1 v -1 l -1,-1 v 2 z m -4,-11 v -1 -2 c 1,-1 0,-2 -1,-2 v -1 c 1,-1 -1,-5 -3,-4 v 4 l 1,2 1,1 v 1 c -1,1 0,2 1,3 1,1 1,1 1,-1 z m 8,-13 v -2 -5 c 2,-1 1,-7 -1,-7 l -1,-3 v -2 l -1,-5 v -1 l -1,1 -1,1 c -1,-1 -2,0 -1,4 v 3 l -1,-2 c 0,-2 -1,-1 -1,1 l -1,3 v 5 l 1,1 v 2 l 1,1 2,3 v 1 l 2,2 c 2,2 3,1 3,-1 z m -3,-1 v -3 z m 0,-5 v -1 l 1,2 z m 7,-19 v -7 l 1,-5 v -1 -3 c -1,-1 0,-2 1,-1 v -1 -1 c 2,0 2,-2 1,-4 l -1,-1 c 1,-1 0,-1 -1,-2 l -1,-1 h -2 v 1 l 2,3 1,1 c 1,1 1,2 -1,2 v -1 l -1,-1 c -1,0 -2,1 -1,2 v 2 l -1,3 v 11 c 0,6 1,9 3,4 z m -19,-7 a 254,254 0 0 1 -1,-5 v 5 c 1,2 2,2 1,0 z m 40,-12 -1,-2 v -1 l -1,1 c -2,0 -1,1 0,2 z m -42,-6 -1,-2 h -1 c -1,2 1,3 2,2 z m 36,-4 -2,-2 v 2 z m -4,-5 c -1,0 -2,1 -1,2 l 1,-1 z m -2,-1 -2,-2 v 2 z m -30,-1 h -3 l 3,1 z M 90,191 v -1 l 4,-7 c 2,-4 2,-5 -1,-4 -2,1 -2,0 0,-1 2,-1 2,-1 1,-3 -1,-3 -1,-3 -2,-2 h -1 c -4,-2 -8,-2 -5,0 1,1 1,2 -1,1 v 1 l -1,-1 -1,-3 -2,-3 -1,-1 -3,-1 -2,-2 h -2 l -3,-1 h -2 l -2,-1 h -6 c -2,1 -3,0 -3,-2 0,-1 -1,-2 -3,-2 h -1 l -1,-2 c -2,-2 -2,-3 -1,-6 l 1,-3 v -5 -9 -2 c 0,-2 1,-3 2,-1 l 1,5 v 5 c -1,2 0,11 1,11 l 2,1 c -1,1 0,3 1,3 l 1,2 h 3 l 2,-3 2,-3 1,-2 1,-1 1,-1 h 3 l 2,-1 h 3 l 3,-1 3,-2 2,-1 v 1 l 1,1 1,-1 h 1 l 2,1 3,1 c 2,0 2,0 3,3 1,4 2,6 1,8 l -1,5 v 4 l -1,3 v 2 3 l 1,5 -2,5 -2,4 z m -7,-24 v -1 h -2 c -1,1 2,2 2,1 z m -4,-8 -1,-1 -1,1 h -1 z m 8,22 -1,-1 v -1 c -1,-2 0,-2 1,0 l 1,1 v 1 z m 63,-4 1,-1 1,-1 c 1,-1 1,-1 0,0 z m 101,-18 c -1,0 -1,0 0,0 z M 46,135 v -10 c 1,-2 2,3 1,5 v 5 z m 123,-1 -1,-1 2,1 z m -127,-3 -1,-2 v -1 l 1,-3 1,2 v 3 c 1,2 0,3 -1,1 z m 186,0 v -1 l 1,1 z m -99,-1 -1,-1 -1,-1 c -1,0 -1,0 0,0 l 1,-1 c 0,-2 0,-2 1,-1 v 3 l 1,1 v 1 z m -93,-5 1,-3 1,3 c -1,2 -2,2 -2,0 z m 198,-1 -1,-2 c -1,-2 0,-2 1,-1 1,2 2,3 1,4 -1,1 -2,0 -1,-1 z m -106,-4 v -1 c 1,-1 2,0 1,1 z M 51,100 c -2,-1 -3,-1 -5,-4 l -3,-2 -2,-2 v -3 l -1,-1 a 73,73 0 0 0 -1,-3 v 1 c 1,3 5,5 4,2 0,-3 1,-5 5,-8 l 3,-1 1,2 3,7 v 2 c 3,-1 7,-4 9,-7 l 4,-6 v 1 l -1,1 v 1 l -6,11 c 0,4 -2,7 -6,8 z m 22,-3 v -1 h 1 c 0,1 0,1 0,0 l 1,1 z m 1,-2 h -1 v -2 c 0,-4 2,-4 2,1 0,2 0,2 -1,1 z m -61,-9 1,-3 1,-2 c 0,-1 0,-1 0,0 v 1 3 c -1,2 -2,2 -2,1 z m 25,-5 v -2 l 1,2 z m -2,-8 -2,-7 c -1,-3 -6,-3 -7,0 -1,1 -2,0 -3,-2 -1,-2 -1,-2 1,-3 l 2,-1 5,-1 2,2 3,1 c 3,0 3,0 5,2 2,1 2,4 1,6 l -1,2 c 0,1 -5,2 -6,1 z m 24,-2 -2,-1 c -3,-3 0,-8 4,-9 3,-1 8,0 8,2 v 5 c 0,4 -7,6 -10,3 z M 186,38 c -1,-1 -1,-1 1,-1 l 1,1 z m -27,-3 c -1,-1 0,-1 3,-1 h 2 z m -82,-2 1,-1 1,-1 h 4 c 0,3 -4,4 -6,2 z m -7,-3 -1,-2 -1,-1 v -4 -1 l 2,-2 2,-1 1,-1 4,-4 c -1,-3 1,-5 2,-3 1,1 1,9 -1,11 l -1,6 c 0,2 -1,2 -3,3 -2,1 -3,1 -4,-1 z m -9,-9 1,-3 1,-3 1,-2 h 1 l -1,2 -1,3 c 0,3 -1,4 -2,4 z M 65,9 h 1 v 2 z"
       inkscape:connector-curvature="0"
       style="fill:#726755" />
    <path
       id="path3963"
       d="m 80,197 1,-2 1,-1 -1,2 v 2 z m 62,-6 -1,-1 c -1,0 -1,0 0,0 l 2,-2 3,-3 -2,2 -2,4 c 0,1 0,1 0,0 z m 13,-3 2,-3 v 1 z m -15,-3 1,-1 v -2 l 2,-1 3,-1 h 3 l 1,1 1,2 c -1,1 -3,0 -3,-1 -1,-2 -6,0 -7,3 z m -27,-4 c 0,-4 1,-6 2,-5 l 1,-1 v -2 l 1,-2 c -1,-1 1,-2 3,0 h 2 l 1,-1 1,-1 v -1 -3 l 1,-1 1,-1 h 1 c 1,-2 5,-1 5,1 l 3,3 c 2,0 2,-1 2,-3 0,-5 1,-7 2,-6 1,1 2,0 2,-1 h 1 c 1,1 2,0 2,-1 h 1 c 1,0 2,-3 1,-4 l -1,-3 v -3 -1 l 1,-3 c 1,0 3,-2 2,-3 v -1 -2 h 1 l 2,2 c 1,0 1,0 0,0 l 2,-1 v 1 l -1,-2 v -1 1 h 1 l 2,-2 c 2,0 3,-1 2,-2 v -2 l 1,-1 v -1 h 2 l 1,1 h -1 c 0,1 0,1 0,0 l -1,1 h 4 l 2,2 h -1 v 2 l -1,2 v 1 l -1,3 c -2,2 -3,7 -1,7 2,1 3,6 1,8 l -1,3 h -3 l -3,3 -1,-5 c 0,-4 -1,-6 -3,-5 h -1 c -1,-1 -1,0 -1,2 v 2 l -1,2 c 1,1 0,2 -1,2 v 3 l 1,1 c 0,2 -3,0 -4,-2 0,-2 -2,-1 -3,0 l -2,1 -1,2 v 4 c 0,4 -1,4 -5,0 l -2,-1 -3,1 -1,1 -1,2 h -1 c -2,0 -3,1 -2,2 2,1 2,1 0,0 -3,-1 -6,1 -5,4 0,2 0,2 -1,1 -2,0 -2,1 -2,2 l -1,2 c -1,1 -1,1 -1,-1 z m 46,-44 -2,-2 1,1 z m 76,43 -1,-2 -1,-1 v -1 l -4,-3 h -1 -1 l -1,-1 -3,-2 h -1 l -1,-2 -1,1 -1,1 -1,1 c 0,2 0,2 -2,2 -1,-1 -1,-1 -1,1 l -2,3 h -1 v -5 l 1,1 h 1 l 3,-2 v -3 h 1 v -1 c -1,-1 0,-2 1,-1 l 5,-1 c 1,-1 2,1 2,1 v 1 l 1,-1 2,-2 2,5 1,2 v 2 l 3,3 1,2 c 0,3 -1,3 -1,2 z M 95,178 h -1 v -1 -3 l -1,-3 h -3 l 1,-1 c 2,-2 1,-2 -1,-1 l -7,1 v -1 l 1,-1 1,-2 c -2,-1 -4,-2 -5,-1 -1,1 -3,1 -5,-1 -1,-1 0,-1 4,-1 l 4,-1 -1,-1 -1,-2 -2,-2 c -2,0 -3,-1 -1,-2 l 1,-1 2,-4 2,-2 c 2,-2 2,-2 3,0 1,2 2,2 3,0 1,-1 2,-1 2,1 0,2 2,2 3,0 0,-2 1,-1 2,2 1,3 1,10 -1,15 v 7 l 1,4 c 0,2 0,2 -1,1 z m 115,-1 h -1 l -1,-1 h 3 z m -44,-4 4,-2 -1,1 -2,1 z m 37,-4 v -1 l 2,1 h -1 l -1,1 z m -8,-1 v -1 l 1,-1 c -1,-1 0,-2 1,-1 2,0 3,1 1,1 l -1,1 c -1,2 -2,2 -2,1 z m -2,-1 -4,-5 -3,3 c 0,1 -1,2 -2,1 -1,-1 -2,-1 -2,1 h -1 l -1,-2 -2,-1 c 0,-2 -1,-2 -4,1 -2,2 -2,2 -2,-3 1,-6 3,-9 4,-6 l 2,-1 v -1 h 1 l 2,2 c 1,0 2,1 1,2 l 1,1 c 1,-1 3,1 2,2 l 1,1 v -2 -2 c 1,0 3,2 2,3 l 1,1 c 2,0 5,3 5,5 z m 7,0 h 1 v 1 z M 71,163 h -1 c -1,-1 -1,-1 1,-1 l 2,1 z m -13,-1 -1,-2 c 0,-1 -1,-2 -3,-2 h -1 l -1,-2 v -3 -3 c 0,-3 1,-5 2,-4 l -1,4 c 0,3 0,3 2,3 0,0 2,1 1,2 l 2,3 1,2 h 3 l 2,-2 2,-1 h 1 v 5 z m 14,-3 1,-1 v -1 h -3 -1 c -1,-2 0,-3 1,-3 h 1 l 5,-4 v 6 l -1,2 c 0,2 -2,3 -3,1 z m -19,-18 1,-2 -1,3 z m 89,-1 c -2,-1 -2,-1 -1,-2 l 2,1 h 1 v 1 z m -90,-3 c -1,-2 0,-6 1,-6 v 6 z m 67,0 v -2 l -1,-1 -1,-3 v -2 -1 h -1 v 1 h -1 c 1,0 1,0 0,0 v 1 h -1 v -1 -1 l -1,-1 v -1 c -2,-1 -2,-8 0,-12 l 2,1 c 1,1 1,1 1,-2 1,-3 -1,-5 -2,-4 -1,1 -2,0 -1,-1 l -1,-1 a 608,608 0 0 1 -5,-2 c 0,2 -1,1 -3,-1 l -3,-2 c -2,0 -3,-1 -3,-2 l -3,-3 v 1 c 0,0 -2,2 -3,1 l -1,1 -1,1 c 0,1 -2,0 -2,-2 v -2 l -1,-2 -1,-1 v 2 l -1,2 h -1 -5 c 0,-1 0,-1 0,0 l -1,-1 v -1 l -1,-1 3,-3 c 1,0 3,-6 2,-7 l 1,-2 v -2 l 1,-4 v -1 l 1,-2 1,-1 h 2 l 1,-1 2,-1 1,-2 v -4 l -1,-2 -1,-2 1,-1 v -3 c 0,-3 1,-3 7,-3 6,0 8,0 6,-2 -2,-1 -1,-2 0,-2 1,0 2,0 1,-1 v -1 c 1,-1 1,-1 -1,-1 v -1 l -1,-1 -3,-1 -3,-1 -1,-1 -1,-1 c 0,-2 2,-3 3,-1 l 1,1 h 4 l 1,1 c 0,1 1,2 2,1 l 5,-1 2,1 2,-1 c 1,1 2,0 2,-1 h 2 c 2,2 5,2 8,2 l 6,2 4,2 2,1 2,1 2,4 1,1 1,1 4,4 c 1,2 1,4 -1,4 v 1 l 1,-1 1,1 h 1 c 0,-2 0,-2 3,-1 l 1,-5 c 0,-2 -6,-7 -13,-11 l -3,-2 h -1 l -2,-1 -2,-1 h -1 l 1,-1 3,1 c 4,0 8,2 10,5 6,5 11,8 11,6 v -2 -3 l 1,-3 -1,-2 v -2 c -1,-1 -1,-1 1,-2 l 4,-1 h 4 l 10,1 h 4 v -1 l -1,-1 h 3 l 2,1 4,1 c 0,0 1,0 0,0 l 3,-4 2,2 1,2 v 1 l 1,1 c 2,2 2,4 1,4 v 2 c 1,4 1,12 -1,18 l -1,7 a 65,65 0 0 1 -2,18 l -1,3 c 1,1 -1,4 -2,4 v 2 l -1,1 v 1 l -1,1 h -2 c -1,-1 -2,0 -1,1 0,2 -1,2 -3,1 l -1,-2 v -1 l -1,-1 h -2 l -1,-1 -2,-1 -1,-1 h -2 -2 c -2,0 -4,1 -4,3 l -1,1 -1,1 c -1,2 -1,2 -2,1 h -3 -1 l -1,1 h 1 c 1,0 2,0 1,1 v 1 h 1 l -1,1 v -1 h -1 l -2,-3 h -1 v 1 h -3 l -2,3 -1,1 v 1 l 1,1 v 1 l -1,-1 h -1 l -2,2 v 1 h -3 l -1,-1 c 1,-1 0,-1 -1,-1 l -2,1 -1,2 h -1 c 1,-1 -1,-2 -1,-2 h -1 -1 l -1,1 v 1 l -1,1 -6,1 c -2,0 -2,1 1,6 0,1 0,2 -1,1 l -1,1 v 1 l -1,1 -1,2 1,1 c 2,0 2,2 0,2 l -1,2 1,2 h -3 l -1,1 z m 0,-11 v -1 -2 c 1,-1 0,-2 -1,-2 v -1 c 1,-1 -1,-5 -3,-4 v 3 l -1,1 h 2 v 2 l 1,1 v 1 c -1,1 0,2 1,3 1,1 1,1 1,-1 z m 8,-14 v -6 c 2,-1 1,-7 -1,-7 l -1,-3 v -2 l -1,-5 v -1 l -1,1 -1,1 c -1,-1 -1,0 -1,2 l -1,2 -1,1 v 3 c -2,2 -2,4 -1,6 l 1,1 v 2 l 1,1 2,3 v 1 l 2,2 c 2,2 2,2 3,-2 z m -3,0 v -3 z m 0,-5 v -1 l 1,2 z m 7,-19 v -7 l 1,-5 v -1 -3 c -1,-1 0,-2 1,-1 v -1 -1 c 2,0 2,-2 1,-4 l -1,-1 c 1,-1 0,-1 -1,-2 l -1,-1 h -2 v 1 l 2,3 1,1 c 1,1 1,2 -1,2 v -1 l -1,-1 c -1,0 -2,1 -1,2 v 2 l -1,3 v 11 c 0,6 1,9 3,4 z m -19,-7 a 254,254 0 0 1 -1,-5 v 5 c 1,2 2,2 1,0 z m 40,-12 -1,-2 v -1 l -1,1 c -2,0 -1,1 0,2 z m -42,-6 -1,-2 h -1 c -1,2 1,3 2,2 z m 36,-4 -2,-2 v 2 z m -4,-5 c -1,0 -2,1 -1,2 l 1,-1 z m -2,-1 -2,-2 v 2 z m -29,0 -4,-1 3,1 z m 17,75 v -2 l 1,1 c 0,1 0,2 -1,1 z m 0,-8 c 0,-1 0,-2 1,-1 v 1 z M 50,99 48,97 c -1,-2 -3,-3 -6,-4 v -2 l -1,-2 h 1 c 1,1 1,1 1,-1 0,-3 1,-5 5,-8 2,-2 2,-1 5,2 2,4 2,5 0,8 -2,2 -1,2 1,1 l 8,-5 c 2,-2 2,-2 0,1 l -1,4 c 0,5 -6,10 -11,8 z m 4,-2 4,-4 -2,1 -4,2 h -3 c -1,1 3,2 5,1 z m -41,-11 1,-3 1,-2 c 0,-1 0,-1 0,0 v 1 3 c -1,2 -2,2 -2,1 z m 25,-6 c 0,-1 0,-2 1,-1 v 2 z m -2,-7 -2,-7 c -1,-3 -6,-3 -7,0 -1,1 -2,0 -3,-2 -1,-2 -1,-2 1,-3 l 2,-1 5,-1 2,2 2,1 5,1 c 4,4 2,10 -3,10 z m 4,-8 h -1 v 1 z m 21,6 -3,-1 c -2,-1 -2,-2 -1,-3 v -1 c 0,-2 4,-5 7,-5 3,-1 6,0 6,1 l -1,4 c 0,4 0,4 -2,5 z m 3,-6 v -2 l -1,2 z M 186,38 c -1,-1 -1,-1 1,-1 l 1,1 z m -27,-3 c -1,-1 0,-1 3,-1 h 2 z m -82,-2 1,-1 1,-1 h 4 c 0,3 -4,4 -6,2 z m -7,-3 -1,-2 -1,-1 v -4 -1 l 2,-2 2,-1 1,-1 4,-4 c -1,-3 1,-5 2,-3 1,1 1,9 -1,11 l -1,6 c 0,2 -1,2 -3,3 -2,1 -3,1 -4,-1 z m -9,-9 2,-4 v 2 c 0,2 -2,4 -2,2 z"
       inkscape:connector-curvature="0"
       style="fill:#866433" />
    <path
       id="path3965"
       d="m 80,197 1,-2 1,-1 -1,2 v 2 z m 62,-6 -1,-1 c -1,0 -1,0 0,0 l 2,-2 3,-3 -2,2 -2,4 c 0,1 0,1 0,0 z m 13,-3 2,-3 v 1 z m -15,-3 1,-1 v -2 l 2,-1 3,-1 h 3 l 1,1 1,2 c -1,1 -3,0 -3,-1 -1,-2 -6,0 -7,3 z m -27,-4 c 0,-4 1,-6 2,-5 l 1,-1 v -2 l 1,-2 c -1,-1 1,-2 3,0 h 2 l 1,-1 1,-1 v -1 -3 l 1,-1 1,-1 h 1 c 1,-2 5,-1 5,1 l 3,3 c 2,0 2,-1 2,-3 0,-5 1,-7 2,-6 1,1 2,0 2,-1 h 1 c 1,1 2,0 2,-1 h 1 c 1,0 2,-3 1,-4 l -1,-3 v -3 -1 l 1,-3 2,-1 v -3 -2 h 1 l 2,2 c 1,0 1,0 0,0 l 2,-1 c 0,1 0,1 0,0 0,-3 4,-4 4,-2 l 1,2 h 1 c 0,1 0,0 0,0 v -1 l -1,-2 v -1 c -1,-2 2,-3 2,-1 l 1,1 c 2,1 2,3 1,3 v 4 c -2,2 -3,7 -1,7 2,1 3,6 1,8 l -1,3 h -3 l -3,3 -1,-5 c 0,-4 -1,-6 -3,-5 h -1 c -1,-1 -1,0 -1,2 v 2 l -1,2 c 1,1 0,2 -1,2 v 3 l 1,1 c 0,2 -3,0 -4,-2 0,-2 -2,-1 -3,0 l -2,1 -1,2 v 4 c 0,4 -1,4 -5,0 l -2,-1 -3,1 -1,1 -1,2 h -1 c -2,0 -3,1 -2,2 2,1 2,1 0,0 -3,-1 -6,1 -5,4 0,2 0,2 -1,1 -2,0 -2,1 -2,2 l -1,2 c -1,1 -1,1 -1,-1 z m 122,-1 -1,-2 -1,-1 v -1 l -4,-3 h -1 -1 l -1,-1 -3,-2 h -1 l -1,-2 -1,1 -1,1 -1,1 c 0,2 0,2 -2,2 -1,-1 -1,-1 -1,1 l -2,3 h -1 v -5 l 1,1 h 1 l 3,-2 v -3 h 1 v -1 c -1,-1 0,-2 1,-1 l 5,-1 c 1,-1 2,1 2,1 v 1 l 1,-1 2,-2 2,5 1,2 v 2 l 3,3 1,2 c 0,3 -1,3 -1,2 z M 95,178 v -1 l -1,-4 -1,-2 h -3 l 1,-1 c 2,-2 1,-2 -1,-1 l -7,1 v -1 l 1,-1 1,-2 c -2,-1 -4,-2 -5,-1 -1,1 -3,1 -5,-1 -1,-1 0,-1 4,-1 l 4,-1 -1,-1 -1,-2 -2,-2 c -2,0 -3,-1 -1,-2 l 1,-1 2,-4 2,-2 c 2,-2 2,-2 3,0 1,2 2,2 3,0 1,-1 2,-1 2,1 0,2 2,2 3,0 0,-2 1,-1 2,2 1,3 1,10 -1,15 v 8 l 1,3 c 0,2 0,2 -1,1 z m 115,-1 h -1 l -1,-1 h 3 z m -44,-4 4,-2 -1,1 -2,1 z m 37,-4 v -1 l 2,1 h -1 l -1,1 z m -8,-1 v -1 l 1,-1 c -1,-1 0,-2 1,-1 2,0 3,1 1,1 l -1,1 c -1,2 -2,2 -2,1 z m -2,-1 -4,-5 -3,3 c 0,1 -1,2 -2,1 -1,-1 -2,-1 -2,1 h -1 l -1,-2 -2,-1 c 0,-2 -1,-2 -4,1 -2,2 -2,2 -2,-3 1,-6 3,-9 4,-6 l 2,-1 v -1 h 1 l 2,2 c 1,0 2,1 1,2 l 1,1 c 1,-1 3,1 2,2 l 1,1 v -2 -2 c 1,0 3,2 2,3 l 1,1 c 2,0 5,3 5,5 z m 7,0 h 1 v 1 z M 71,163 h -1 c -1,-1 -1,-1 1,-1 l 2,1 z m -13,-1 -1,-2 c 0,-1 -1,-2 -3,-2 h -1 l -1,-2 v -3 -3 c 0,-3 1,-5 2,-4 l -1,4 c 0,2 1,5 3,5 v 1 l 1,2 2,2 h 3 l 2,-2 2,-1 h 1 v 5 z m 14,-3 1,-1 v -1 h -3 -1 c -1,-2 0,-3 1,-3 h 1 l 5,-4 v 6 l -1,2 c 0,2 -2,3 -3,1 z m -19,-17 1,-3 v 2 l -1,2 z m -1,-5 c -1,-1 0,-4 1,-4 v 3 c 0,2 -1,2 -1,1 z m 62,-31 -1,-2 c 0,-2 0,-2 -2,-2 h -1 l -1,-1 -1,-1 h -1 v -2 -2 -1 -1 -5 l 2,2 h 1 l -2,-5 -1,1 -3,2 h -3 l -2,-2 -2,-2 -1,-1 -1,-2 1,-1 -1,-2 c -3,0 -3,-4 -1,-5 l 1,-1 1,-1 c 1,-1 0,-3 -1,-4 v -1 l -1,-1 v -3 l -1,-3 c -2,-1 -1,-3 3,-4 h 4 c 2,0 5,3 5,5 -1,1 3,4 5,4 h 2 l -1,-4 c 0,-2 0,-3 -2,-5 -1,-2 -1,-2 2,-2 l 2,-1 1,-1 -1,-1 -1,-2 -1,-2 -1,-2 h 1 l 2,1 1,1 1,-1 h 4 l 1,1 2,1 v 1 h 3 l 1,2 h -3 v 3 c 3,2 5,9 4,15 v 6 a 20,20 0 0 1 -2,6 v -2 l -1,-4 v 4 l -1,4 c -1,3 -1,3 -2,2 h -1 v 1 l -1,1 v 2 l -1,4 v 3 l -1,1 -1,1 v 3 c 0,3 -1,6 -2,5 z m -2,-13 v -1 l -2,1 z m 1,-10 v -4 l -1,-3 -1,-2 v -1 h -1 l -1,1 v 2 l 1,4 c 1,3 4,6 3,3 z m 27,21 v -1 l -1,-1 -1,-2 -1,-1 h -3 l -1,-1 v -2 -2 -1 h 1 v -1 l 1,-1 -1,-1 v -2 -2 c 0,-2 0,-2 2,0 l 1,3 v 2 l 1,1 1,2 v 1 h 1 l 2,1 1,-1 h 3 c 1,1 0,4 -2,4 v 1 h 3 l -1,2 -1,1 h -1 l -1,1 z m 1,-5 -1,-1 a 264,264 0 0 1 -1,-2 v 3 l 1,1 1,1 z m -91,0 -2,-2 -4,-3 -2,-2 c 0,-2 0,-2 1,-1 l 1,-1 v -4 c 0,-2 1,-3 4,-5 4,-3 8,4 5,9 -2,2 -1,2 1,1 l 8,-5 c 2,-2 2,-2 0,1 l -1,4 c 0,5 -6,10 -11,8 z m 4,-2 4,-4 -2,1 -4,2 h -3 c -1,1 3,2 5,1 z m 95,-3 c -2,-2 -2,-2 -1,-3 v -2 l -1,-6 -1,-6 c -1,-4 -1,-7 1,-5 l 1,2 4,5 c 0,2 1,3 2,3 l -1,3 c -1,1 0,1 1,1 l 1,1 1,2 1,1 -2,1 v 1 l -3,-1 v -1 3 l -1,2 z m -6,-2 v -1 -2 -2 l -1,-2 v -1 l 3,5 1,2 v 1 h -2 z m 20,-3 v -2 l 1,1 z m -25,0 v -1 l -1,-1 v -1 -1 -1 h 1 l 1,1 v 2 l 1,2 z M 92,87 90,86 h -2 v -2 l -1,-2 1,-1 1,1 1,3 2,3 z m 68,-2 -1,-2 -1,-1 c -1,-1 -2,0 -1,1 1,2 0,2 -1,1 v -1 -1 c -1,1 -2,0 -2,-1 v -1 l -1,-4 c 1,0 2,1 2,3 l 1,1 v -4 l -1,-2 v -6 l 4,4 h 1 l -1,-2 1,-3 c 1,0 2,-1 1,-2 v -2 -2 l -1,-2 1,1 c 2,1 2,1 2,-2 0,-2 0,-2 1,-1 l 1,1 v -4 l -1,-1 c -1,-1 1,-1 3,1 h 10 l 3,1 c 1,0 2,-2 1,-3 -1,-1 -1,-1 1,-1 3,0 4,0 6,2 l 2,1 1,1 1,1 4,5 c -1,1 -2,0 -2,-1 l -1,-1 -1,-1 -2,-1 -1,-1 -2,-1 h -2 l 4,4 4,4 v 6 c 1,1 0,1 -1,1 h -1 v 1 c 1,0 2,1 0,3 -1,1 1,2 2,1 l 1,3 h -4 l -1,1 -2,-1 v -1 l -1,-3 v -3 c -1,0 -1,0 0,0 h 1 c 1,-1 -3,-5 -4,-4 l -1,-1 -1,-1 c -1,2 0,4 2,4 2,-1 3,1 2,2 v 2 c 0,2 0,2 -2,1 l -1,-1 v 1 l 1,1 1,1 h 2 c 0,2 -1,2 -2,1 h -2 l -1,-1 -1,-1 -4,-3 v -1 c -1,1 -2,0 -2,-1 v -1 l -1,2 h -1 c -1,0 -2,2 0,3 v 4 l 1,1 c -1,1 -2,0 -2,-1 h -1 -2 v -1 -2 h -1 v 2 1 c 0,1 0,2 -1,1 h -1 c 0,2 -2,2 -3,0 -1,-2 -2,-1 -2,0 v 4 c 2,1 2,3 1,3 z m 29,-10 -1,-1 h -1 l 2,2 z m -10,-2 -1,-1 h -1 l 1,1 z m 11,-1 h -2 z m -17,-3 h -2 z m 17,14 -2,-1 c 0,2 -1,2 -2,0 -1,-1 -1,-1 1,-1 l 1,-1 h 2 l 1,1 a 2023,2023 0 0 1 -1,2 z M 91,81 90,79 v -1 c -1,-1 0,-2 1,-1 v 1 l 1,1 1,2 c -1,2 -1,2 -2,0 z m 84,0 z m 2,-2 v -1 l -1,-2 h 1 l 2,2 c 2,2 2,2 0,2 z m 15,0 z M 37,72 34,66 33,64 32,63 h -5 l 1,-1 3,-1 2,1 2,1 c 4,-1 5,-1 7,1 2,2 1,8 -2,9 z m 3,-7 h -1 v 1 z m 20,6 -2,-1 -1,-4 c 1,-4 9,-7 12,-4 v 8 c -1,2 -7,3 -9,1 z m 4,-6 v -2 l -1,2 z m 77,0 v -2 z m -6,-8 -1,-2 c 2,0 4,2 4,3 z m 58,-6 h -1 v -1 l 1,-2 c 2,-1 1,-2 -1,-3 l -3,-2 c -1,-1 -1,-1 1,-1 4,1 6,4 5,7 l -1,2 z m -82,0 -2,-1 h -1 4 z M 98,44 v -1 h 3 z m -3,-2 2,-1 -1,1 z M 73,23 c 0,-1 1,-2 2,-1 l -1,2 z m -12,-2 1,-1 c 0,-1 0,-1 0,0 z"
       inkscape:connector-curvature="0"
       style="fill:#74562d" />
  </g>
</svg>
