<?xml version="1.0" encoding="UTF-8"?>
<svg width="400px" height="200px" viewBox="0 0 400 200" version="1.1" xmlns="http://www.w3.org/2000/svg" xmlns:xlink="http://www.w3.org/1999/xlink">
    <!-- Generator: Sketch 59.1 (86144) - https://sketch.com -->
    <title>entry-form</title>
    <desc>Created with Sketch.</desc>
    <g id="entry-form" stroke="none" stroke-width="1" fill="none" fill-rule="evenodd">
        <rect fill="#F4F6F8" x="0" y="0" width="400" height="200"></rect>
        <rect id="Rectangle" stroke="#B1BAC4" fill="#FFFFFF" x="125" y="20" width="150" height="80"></rect>
        <rect id="Rectangle" stroke="#CED4DA" fill="#FFFFFF" x="187" y="31" width="75" height="12"></rect>
        <rect id="Rectangle" stroke="#CED4DA" fill="#FFFFFF" x="187" y="55" width="75" height="12"></rect>
        <rect id="Rectangle" stroke="#CED4DA" fill="#FFFFFF" x="187" y="78" width="75" height="12"></rect>
        <rect id="Rectangle" fill="#CED4DA" x="137" y="31" width="40" height="12" rx="6"></rect>
        <rect id="Rectangle" fill="#CED4DA" x="137" y="55" width="40" height="12" rx="6"></rect>
        <rect id="Rectangle" fill="#CED4DA" x="137" y="78" width="40" height="12" rx="6"></rect>
        <rect id="Rectangle" stroke="#B1BAC4" fill="#FFFFFF" x="38" y="120" width="323" height="60"></rect>
        <rect id="Rectangle" stroke="#CED4DA" fill="#FFFFFF" x="50" y="132" width="75" height="12"></rect>
        <rect id="Rectangle" stroke="#CED4DA" fill="#FFFFFF" x="125" y="132" width="75" height="12"></rect>
        <rect id="Rectangle" stroke="#CED4DA" fill="#FFFFFF" x="50" y="144" width="75" height="12"></rect>
        <rect id="Rectangle" stroke="#CED4DA" fill="#FFFFFF" x="50" y="156" width="75" height="12"></rect>
        <rect id="Rectangle" stroke="#CED4DA" fill="#FFFFFF" x="125" y="144" width="75" height="12"></rect>
        <rect id="Rectangle" stroke="#CED4DA" fill="#FFFFFF" x="125" y="156" width="75" height="12"></rect>
        <rect id="Rectangle" stroke="#CED4DA" fill="#FFFFFF" x="200" y="132" width="75" height="12"></rect>
        <rect id="Rectangle" stroke="#CED4DA" fill="#FFFFFF" x="275" y="132" width="75" height="12"></rect>
        <rect id="Rectangle" stroke="#CED4DA" fill="#FFFFFF" x="200" y="144" width="75" height="12"></rect>
        <rect id="Rectangle" stroke="#CED4DA" fill="#FFFFFF" x="200" y="156" width="75" height="12"></rect>
        <rect id="Rectangle" stroke="#CED4DA" fill="#FFFFFF" x="275" y="144" width="75" height="12"></rect>
        <rect id="Rectangle" stroke="#CED4DA" fill="#FFFFFF" x="275" y="156" width="75" height="12"></rect>
    </g>
</svg>