<?xml version="1.0" encoding="UTF-8"?>
<svg width="128px" height="128px" viewBox="0 0 128 128" version="1.1" xmlns="http://www.w3.org/2000/svg" xmlns:xlink="http://www.w3.org/1999/xlink">
    <!-- Generator: Sketch 59.1 (86144) - https://sketch.com -->
    <title>web-components</title>
    <desc>Created with Sketch.</desc>
    <g id="web-components" stroke="none" stroke-width="1" fill="none" fill-rule="evenodd">
        <path d="M76.3543681,4.25116182 C72.7387125,13.9793244 68.9319578,19 64,19 C59.0680422,19 55.2612875,13.9793244 51.6456319,4.25116182 C47.2344682,5.15827842 42.9579423,6.54975843 38.8803331,8.39492042 C41.6842585,18.3760372 41.5535575,24.6815401 37.5511293,27.5931697 C33.547005,30.5060332 27.5131286,28.6836239 18.8940805,22.9328627 C15.872274,26.2498174 13.222132,29.8893631 10.9967702,33.7841564 C19.1303832,40.217239 22.7291235,45.3926285 21.2026312,50.0936984 C19.6759461,54.7953619 13.7238932,56.8666775 3.36472111,57.2886948 C3.12224867,59.5055406 3,61.7448089 3,64 C3,66.2570547 3.12245079,68.4981603 3.36532246,70.7168009 C13.7368951,71.1596498 19.6831081,73.2266946 21.2026312,77.9063016 C22.7219609,82.5853131 19.1254359,87.7538163 10.9940298,94.211047 C13.2214728,98.1103036 15.874646,101.753782 18.9002598,105.073919 C27.556292,99.3390624 33.5781462,97.5166209 37.5511293,100.40683 C41.522411,103.295802 41.6493742,109.589886 38.8719895,119.601303 C42.9521011,121.44834 47.2314441,122.841098 51.6456082,123.748833 C55.26116,114.020694 59.0679404,109 64,109 C68.9319799,109 72.7390389,114.020645 76.3552147,123.748771 C80.7661445,122.841548 85.0423825,121.450097 89.119667,119.60508 C86.3157415,109.623963 86.4464424,103.31846 90.4488707,100.40683 C94.452995,97.4939668 100.486871,99.3163761 109.105919,105.067137 C112.127726,101.750183 114.777868,98.1106369 117.00323,94.2158436 C108.869617,87.782761 105.270877,82.6073715 106.797369,77.9063016 C108.324054,73.2046381 114.276107,71.1333225 124.635279,70.7113052 C124.877751,68.4944594 125,66.2551911 125,64 C125,61.7429453 124.877549,59.5018397 124.634678,57.2831991 C114.263105,56.8403502 108.316892,54.7733054 106.797369,50.0936984 C105.278039,45.4146869 108.874564,40.2461837 117.00597,33.788953 C114.778527,29.8896964 112.125354,26.2462177 109.09974,22.9260808 C100.443708,28.6609376 94.4218538,30.4833791 90.4488707,27.5931697 C86.477589,24.7041981 86.3506258,18.4101137 89.1280105,8.39869675 C85.0478916,6.55165688 80.7685406,5.15889716 76.3543681,4.25116182 Z M64,37 C78.9116882,37 91,49.0883118 91,64 C91,78.9116882 78.9116882,91 64,91 C49.0883118,91 37,78.9116882 37,64 C37,49.0883118 49.0883118,37 64,37 Z" id="Shape" stroke="#6A8FB4" stroke-width="6" fill="#AEC2D6"></path>
    </g>
</svg>